<mxfile host="app.diagrams.net" agent="Mozilla/5.0 (Macintosh; Intel Mac OS X 10_15_7) AppleWebKit/537.36 (KHTML, like Gecko) Chrome/137.0.0.0 Safari/537.36 Edg/137.0.0.0" version="28.1.0">
  <diagram name="第 1 页" id="qCVPnTIld-MLVGK2cVHi">
    <mxGraphModel dx="994" dy="561" grid="1" gridSize="10" guides="1" tooltips="1" connect="1" arrows="1" fold="1" page="1" pageScale="1" pageWidth="1169" pageHeight="827" math="0" shadow="0">
      <root>
        <mxCell id="0" />
        <mxCell id="1" parent="0" />
        <mxCell id="x1O2trK2bo9QjgoT-P59-8" value="" style="rounded=0;whiteSpace=wrap;html=1;" vertex="1" parent="1">
          <mxGeometry x="440" y="160" width="240" height="410" as="geometry" />
        </mxCell>
        <mxCell id="x1O2trK2bo9QjgoT-P59-4" style="edgeStyle=orthogonalEdgeStyle;rounded=0;orthogonalLoop=1;jettySize=auto;html=1;exitX=0.5;exitY=1;exitDx=0;exitDy=0;entryX=0.5;entryY=0;entryDx=0;entryDy=0;" edge="1" parent="1" source="x1O2trK2bo9QjgoT-P59-1" target="x1O2trK2bo9QjgoT-P59-3">
          <mxGeometry relative="1" as="geometry" />
        </mxCell>
        <mxCell id="x1O2trK2bo9QjgoT-P59-5" value="发起请求" style="edgeLabel;html=1;align=center;verticalAlign=middle;resizable=0;points=[];" vertex="1" connectable="0" parent="x1O2trK2bo9QjgoT-P59-4">
          <mxGeometry x="-0.4889" y="1" relative="1" as="geometry">
            <mxPoint as="offset" />
          </mxGeometry>
        </mxCell>
        <mxCell id="x1O2trK2bo9QjgoT-P59-1" value="客户端" style="rounded=1;whiteSpace=wrap;html=1;" vertex="1" parent="1">
          <mxGeometry x="500" y="30" width="120" height="60" as="geometry" />
        </mxCell>
        <mxCell id="x1O2trK2bo9QjgoT-P59-10" style="edgeStyle=orthogonalEdgeStyle;rounded=0;orthogonalLoop=1;jettySize=auto;html=1;exitX=0.5;exitY=1;exitDx=0;exitDy=0;entryX=0.5;entryY=0;entryDx=0;entryDy=0;" edge="1" parent="1" source="x1O2trK2bo9QjgoT-P59-3" target="x1O2trK2bo9QjgoT-P59-6">
          <mxGeometry relative="1" as="geometry" />
        </mxCell>
        <mxCell id="x1O2trK2bo9QjgoT-P59-3" value="连接器" style="rounded=1;whiteSpace=wrap;html=1;" vertex="1" parent="1">
          <mxGeometry x="500" y="180" width="120" height="60" as="geometry" />
        </mxCell>
        <mxCell id="x1O2trK2bo9QjgoT-P59-11" style="edgeStyle=orthogonalEdgeStyle;rounded=0;orthogonalLoop=1;jettySize=auto;html=1;exitX=0.5;exitY=1;exitDx=0;exitDy=0;entryX=0.5;entryY=0;entryDx=0;entryDy=0;" edge="1" parent="1" source="x1O2trK2bo9QjgoT-P59-6" target="x1O2trK2bo9QjgoT-P59-7">
          <mxGeometry relative="1" as="geometry" />
        </mxCell>
        <mxCell id="x1O2trK2bo9QjgoT-P59-6" value="分析器&lt;span style=&quot;color: rgba(0, 0, 0, 0); font-family: monospace; font-size: 0px; text-align: start; text-wrap-mode: nowrap;&quot;&gt;%3CmxGraphModel%3E%3Croot%3E%3CmxCell%20id%3D%220%22%2F%3E%3CmxCell%20id%3D%221%22%20parent%3D%220%22%2F%3E%3CmxCell%20id%3D%222%22%20value%3D%22%E8%BF%9E%E6%8E%A5%E5%99%A8%22%20style%3D%22rounded%3D1%3BwhiteSpace%3Dwrap%3Bhtml%3D1%3B%22%20vertex%3D%221%22%20parent%3D%221%22%3E%3CmxGeometry%20x%3D%22500%22%20y%3D%22180%22%20width%3D%22120%22%20height%3D%2260%22%20as%3D%22geometry%22%2F%3E%3C%2FmxCell%3E%3C%2Froot%3E%3C%2FmxGraphModel%3E&lt;/span&gt;" style="rounded=1;whiteSpace=wrap;html=1;" vertex="1" parent="1">
          <mxGeometry x="500" y="280" width="120" height="60" as="geometry" />
        </mxCell>
        <mxCell id="x1O2trK2bo9QjgoT-P59-12" style="edgeStyle=orthogonalEdgeStyle;rounded=0;orthogonalLoop=1;jettySize=auto;html=1;exitX=0.5;exitY=1;exitDx=0;exitDy=0;" edge="1" parent="1" source="x1O2trK2bo9QjgoT-P59-7" target="x1O2trK2bo9QjgoT-P59-9">
          <mxGeometry relative="1" as="geometry" />
        </mxCell>
        <mxCell id="x1O2trK2bo9QjgoT-P59-7" value="优化器&lt;span style=&quot;color: rgba(0, 0, 0, 0); font-family: monospace; font-size: 0px; text-align: start; text-wrap-mode: nowrap;&quot;&gt;%3CmxGraphModel%3E%3Croot%3E%3CmxCell%20id%3D%220%22%2F%3E%3CmxCell%20id%3D%221%22%20parent%3D%220%22%2F%3E%3CmxCell%20id%3D%222%22%20value%3D%22%E8%BF%9E%E6%8E%A5%E5%99%A8%22%20style%3D%22rounded%3D1%3BwhiteSpace%3Dwrap%3Bhtml%3D1%3B%22%20vertex%3D%221%22%20parent%3D%221%22%3E%3CmxGeometry%20x%3D%22500%22%20y%3D%22180%22%20width%3D%22120%22%20height%3D%2260%22%20as%3D%22geometry%22%2F%3E%3C%2FmxCell%3E%3C%2Froot%3E%3C%2FmxGraphModel%3E&lt;/span&gt;" style="rounded=1;whiteSpace=wrap;html=1;" vertex="1" parent="1">
          <mxGeometry x="500" y="383.5" width="120" height="60" as="geometry" />
        </mxCell>
        <mxCell id="x1O2trK2bo9QjgoT-P59-20" style="edgeStyle=orthogonalEdgeStyle;rounded=0;orthogonalLoop=1;jettySize=auto;html=1;exitX=0.5;exitY=1;exitDx=0;exitDy=0;entryX=0.5;entryY=0;entryDx=0;entryDy=0;" edge="1" parent="1" source="x1O2trK2bo9QjgoT-P59-9" target="x1O2trK2bo9QjgoT-P59-16">
          <mxGeometry relative="1" as="geometry" />
        </mxCell>
        <mxCell id="x1O2trK2bo9QjgoT-P59-9" value="执行器&lt;span style=&quot;color: rgba(0, 0, 0, 0); font-family: monospace; font-size: 0px; text-align: start; text-wrap-mode: nowrap;&quot;&gt;%3CmxGraphModel%3E%3Croot%3E%3CmxCell%20id%3D%220%22%2F%3E%3CmxCell%20id%3D%221%22%20parent%3D%220%22%2F%3E%3CmxCell%20id%3D%222%22%20value%3D%22%E8%BF%9E%E6%8E%A5%E5%99%A8%22%20style%3D%22rounded%3D1%3BwhiteSpace%3Dwrap%3Bhtml%3D1%3B%22%20vertex%3D%221%22%20parent%3D%221%22%3E%3CmxGeometry%20x%3D%22500%22%20y%3D%22180%22%20width%3D%22120%22%20height%3D%2260%22%20as%3D%22geometry%22%2F%3E%3C%2FmxCell%3E%3C%2Froot%3E%3C%2FmxGraphModel%3E&lt;/span&gt;" style="rounded=1;whiteSpace=wrap;html=1;" vertex="1" parent="1">
          <mxGeometry x="500" y="480" width="120" height="60" as="geometry" />
        </mxCell>
        <mxCell id="x1O2trK2bo9QjgoT-P59-16" value="" style="rounded=0;whiteSpace=wrap;html=1;" vertex="1" parent="1">
          <mxGeometry x="300" y="640" width="520" height="90" as="geometry" />
        </mxCell>
        <mxCell id="x1O2trK2bo9QjgoT-P59-26" style="edgeStyle=orthogonalEdgeStyle;rounded=0;orthogonalLoop=1;jettySize=auto;html=1;exitX=1;exitY=0.5;exitDx=0;exitDy=0;dashed=1;dashPattern=8 8;" edge="1" parent="1" source="x1O2trK2bo9QjgoT-P59-17" target="x1O2trK2bo9QjgoT-P59-24">
          <mxGeometry relative="1" as="geometry" />
        </mxCell>
        <mxCell id="x1O2trK2bo9QjgoT-P59-17" value="InnoDB存储引擎" style="rounded=1;whiteSpace=wrap;html=1;" vertex="1" parent="1">
          <mxGeometry x="670" y="655" width="120" height="60" as="geometry" />
        </mxCell>
        <mxCell id="x1O2trK2bo9QjgoT-P59-18" value="MyISAM存储引擎" style="rounded=1;whiteSpace=wrap;html=1;" vertex="1" parent="1">
          <mxGeometry x="500" y="655" width="120" height="60" as="geometry" />
        </mxCell>
        <mxCell id="x1O2trK2bo9QjgoT-P59-19" value="Memory存储引擎" style="rounded=1;whiteSpace=wrap;html=1;" vertex="1" parent="1">
          <mxGeometry x="330" y="655" width="120" height="60" as="geometry" />
        </mxCell>
        <mxCell id="x1O2trK2bo9QjgoT-P59-21" value="binlog日志&lt;div&gt;（归档日志）&lt;/div&gt;" style="shape=note;whiteSpace=wrap;html=1;backgroundOutline=1;darkOpacity=0.05;" vertex="1" parent="1">
          <mxGeometry x="910" y="460" width="80" height="100" as="geometry" />
        </mxCell>
        <mxCell id="x1O2trK2bo9QjgoT-P59-22" style="edgeStyle=orthogonalEdgeStyle;rounded=0;orthogonalLoop=1;jettySize=auto;html=1;exitX=1;exitY=0.5;exitDx=0;exitDy=0;entryX=0;entryY=0.5;entryDx=0;entryDy=0;entryPerimeter=0;dashed=1;dashPattern=8 8;" edge="1" parent="1" source="x1O2trK2bo9QjgoT-P59-9" target="x1O2trK2bo9QjgoT-P59-21">
          <mxGeometry relative="1" as="geometry" />
        </mxCell>
        <mxCell id="x1O2trK2bo9QjgoT-P59-23" value="写入日志" style="edgeLabel;html=1;align=center;verticalAlign=middle;resizable=0;points=[];" vertex="1" connectable="0" parent="x1O2trK2bo9QjgoT-P59-22">
          <mxGeometry x="-0.0759" relative="1" as="geometry">
            <mxPoint as="offset" />
          </mxGeometry>
        </mxCell>
        <mxCell id="x1O2trK2bo9QjgoT-P59-24" value="redolog日志&lt;div&gt;（重放日志）&lt;/div&gt;" style="shape=note;whiteSpace=wrap;html=1;backgroundOutline=1;darkOpacity=0.05;" vertex="1" parent="1">
          <mxGeometry x="910" y="635" width="80" height="100" as="geometry" />
        </mxCell>
      </root>
    </mxGraphModel>
  </diagram>
</mxfile>
